<mxfile host="app.diagrams.net" modified="2024-02-20T03:37:02.743Z" agent="Mozilla/5.0 (Macintosh; Intel Mac OS X 10_15_7) AppleWebKit/537.36 (KHTML, like Gecko) Chrome/121.0.0.0 Safari/537.36" etag="F8QyrpEO5Idl4hcmsngp" version="23.1.5" type="github">
  <diagram name="第 1 页" id="PWMXQvZU4rx3PlpiuCWV">
    <mxGraphModel dx="847" dy="639" grid="1" gridSize="10" guides="1" tooltips="1" connect="1" arrows="1" fold="1" page="1" pageScale="1" pageWidth="827" pageHeight="1169" math="0" shadow="0">
      <root>
        <mxCell id="0" />
        <mxCell id="1" parent="0" />
        <mxCell id="pr1UF73VHy9s719HEStR-6" value="" style="edgeStyle=orthogonalEdgeStyle;rounded=0;orthogonalLoop=1;jettySize=auto;html=1;" edge="1" parent="1" source="pr1UF73VHy9s719HEStR-1" target="pr1UF73VHy9s719HEStR-5">
          <mxGeometry relative="1" as="geometry" />
        </mxCell>
        <mxCell id="pr1UF73VHy9s719HEStR-7" style="edgeStyle=orthogonalEdgeStyle;rounded=0;orthogonalLoop=1;jettySize=auto;html=1;exitX=0.5;exitY=1;exitDx=0;exitDy=0;entryX=0.5;entryY=0;entryDx=0;entryDy=0;" edge="1" parent="1" source="pr1UF73VHy9s719HEStR-1" target="pr1UF73VHy9s719HEStR-4">
          <mxGeometry relative="1" as="geometry" />
        </mxCell>
        <mxCell id="pr1UF73VHy9s719HEStR-1" value="" style="rounded=0;whiteSpace=wrap;html=1;" vertex="1" parent="1">
          <mxGeometry x="280" y="200" width="190" height="60" as="geometry" />
        </mxCell>
        <mxCell id="pr1UF73VHy9s719HEStR-2" value="爸爸" style="text;html=1;align=center;verticalAlign=middle;whiteSpace=wrap;rounded=0;" vertex="1" parent="1">
          <mxGeometry x="310" y="215" width="60" height="30" as="geometry" />
        </mxCell>
        <mxCell id="pr1UF73VHy9s719HEStR-3" value="妈妈" style="text;html=1;align=center;verticalAlign=middle;whiteSpace=wrap;rounded=0;" vertex="1" parent="1">
          <mxGeometry x="384" y="215" width="60" height="30" as="geometry" />
        </mxCell>
        <mxCell id="pr1UF73VHy9s719HEStR-4" value="依诺" style="rounded=0;whiteSpace=wrap;html=1;" vertex="1" parent="1">
          <mxGeometry x="280" y="320" width="80" height="60" as="geometry" />
        </mxCell>
        <mxCell id="pr1UF73VHy9s719HEStR-5" value="欣怡" style="rounded=0;whiteSpace=wrap;html=1;" vertex="1" parent="1">
          <mxGeometry x="400" y="320" width="80" height="60" as="geometry" />
        </mxCell>
        <mxCell id="pr1UF73VHy9s719HEStR-12" style="edgeStyle=orthogonalEdgeStyle;rounded=0;orthogonalLoop=1;jettySize=auto;html=1;entryX=0.25;entryY=0;entryDx=0;entryDy=0;" edge="1" parent="1" source="pr1UF73VHy9s719HEStR-8" target="pr1UF73VHy9s719HEStR-1">
          <mxGeometry relative="1" as="geometry" />
        </mxCell>
        <mxCell id="pr1UF73VHy9s719HEStR-8" value="" style="rounded=0;whiteSpace=wrap;html=1;" vertex="1" parent="1">
          <mxGeometry x="160" y="50" width="120" height="50" as="geometry" />
        </mxCell>
        <mxCell id="pr1UF73VHy9s719HEStR-9" value="奶奶" style="text;html=1;align=center;verticalAlign=middle;whiteSpace=wrap;rounded=0;" vertex="1" parent="1">
          <mxGeometry x="170" y="60" width="60" height="30" as="geometry" />
        </mxCell>
        <mxCell id="pr1UF73VHy9s719HEStR-11" value="爷爷" style="text;html=1;align=center;verticalAlign=middle;whiteSpace=wrap;rounded=0;" vertex="1" parent="1">
          <mxGeometry x="230" y="60" width="60" height="30" as="geometry" />
        </mxCell>
        <mxCell id="pr1UF73VHy9s719HEStR-13" value="外公&amp;nbsp; &amp;nbsp; 外婆" style="rounded=0;whiteSpace=wrap;html=1;" vertex="1" parent="1">
          <mxGeometry x="470" y="40" width="120" height="50" as="geometry" />
        </mxCell>
        <mxCell id="pr1UF73VHy9s719HEStR-14" style="edgeStyle=orthogonalEdgeStyle;rounded=0;orthogonalLoop=1;jettySize=auto;html=1;entryX=0.711;entryY=-0.039;entryDx=0;entryDy=0;entryPerimeter=0;" edge="1" parent="1" source="pr1UF73VHy9s719HEStR-13" target="pr1UF73VHy9s719HEStR-1">
          <mxGeometry relative="1" as="geometry">
            <Array as="points">
              <mxPoint x="530" y="150" />
              <mxPoint x="415" y="150" />
            </Array>
          </mxGeometry>
        </mxCell>
        <mxCell id="pr1UF73VHy9s719HEStR-17" value="小爷爷" style="rounded=0;whiteSpace=wrap;html=1;" vertex="1" parent="1">
          <mxGeometry x="294" y="10" width="120" height="55" as="geometry" />
        </mxCell>
        <mxCell id="pr1UF73VHy9s719HEStR-19" style="edgeStyle=orthogonalEdgeStyle;rounded=0;orthogonalLoop=1;jettySize=auto;html=1;" edge="1" parent="1" source="pr1UF73VHy9s719HEStR-18">
          <mxGeometry relative="1" as="geometry">
            <mxPoint x="65" y="160" as="targetPoint" />
          </mxGeometry>
        </mxCell>
        <mxCell id="pr1UF73VHy9s719HEStR-18" value="奶奶的姐姐" style="rounded=0;whiteSpace=wrap;html=1;" vertex="1" parent="1">
          <mxGeometry x="10" y="50" width="110" height="50" as="geometry" />
        </mxCell>
        <mxCell id="pr1UF73VHy9s719HEStR-22" value="" style="edgeStyle=orthogonalEdgeStyle;rounded=0;orthogonalLoop=1;jettySize=auto;html=1;" edge="1" parent="1" source="pr1UF73VHy9s719HEStR-20" target="pr1UF73VHy9s719HEStR-21">
          <mxGeometry relative="1" as="geometry" />
        </mxCell>
        <mxCell id="pr1UF73VHy9s719HEStR-20" value="女儿 穷" style="rounded=0;whiteSpace=wrap;html=1;" vertex="1" parent="1">
          <mxGeometry x="10" y="160" width="120" height="60" as="geometry" />
        </mxCell>
        <mxCell id="pr1UF73VHy9s719HEStR-23" style="edgeStyle=orthogonalEdgeStyle;rounded=0;orthogonalLoop=1;jettySize=auto;html=1;" edge="1" parent="1" source="pr1UF73VHy9s719HEStR-21">
          <mxGeometry relative="1" as="geometry">
            <mxPoint x="40" y="370" as="targetPoint" />
          </mxGeometry>
        </mxCell>
        <mxCell id="pr1UF73VHy9s719HEStR-21" value="儿子&amp;nbsp; 结婚了&lt;br&gt;穷" style="whiteSpace=wrap;html=1;rounded=0;" vertex="1" parent="1">
          <mxGeometry x="10" y="260" width="120" height="60" as="geometry" />
        </mxCell>
        <mxCell id="pr1UF73VHy9s719HEStR-24" value="两个宝宝" style="rounded=0;whiteSpace=wrap;html=1;" vertex="1" parent="1">
          <mxGeometry x="10" y="370" width="120" height="60" as="geometry" />
        </mxCell>
      </root>
    </mxGraphModel>
  </diagram>
</mxfile>
